#!OML:ASF H:\Dans Jumps\Project 1\Capture day 1\Session 1\subject.ASF
:FULLY-SPECIFIED
:DEGREES
597
root 0.379525 17.7828 2.94683 7.15622 -1.46767 -1.29489
lowerback -2.48724 0.0155076 -0.255077
upperback 2.46746 -0.0187661 1.3998
thorax 3.93593 -0.0382858 1.58467
lowerneck -13.4579 0.211363 -1.8882
upperneck 26.0401 0.620628 0.544157
head 10.5595 0.161566 0.596454
rclavicle 3.37934e-015 5.96354e-015
rhumerus -24.9257 -14.9745 -82.1739
rradius 23.2586
rwrist 34.713
rhand -21.9191 -28.7111
rfingers 7.12502
rthumb 4.48685 -58.6436
lclavicle 3.37934e-015 5.96354e-015
lhumerus -20.4506 2.79303 88.7083
lradius 14.2242
lwrist -1.26132
lhand -25.2997 -7.04989
lfingers 7.12502
lthumb 1.22216 22.9264
rfemur -14.0366 -1.85287 19.5262
rtibia 20.2545
rfoot -11.717 -0.071356
rtoes 17.8411
lfemur -10.1647 5.98724 -18.1212
ltibia 15.5534
lfoot -8.95708 6.33709
ltoes 1.99612
598
root 0.379521 17.7829 2.94493 7.14851 -1.45519 -1.29243
lowerback -2.49364 0.0151348 -0.252137
upperback 2.45982 -0.0194324 1.40245
thorax 3.93166 -0.0385189 1.58569
lowerneck -13.454 0.209482 -1.89195
upperneck 25.9945 0.616738 0.55125
head 10.5419 0.160635 0.598868
rclavicle -1.88845e-015 7.95139e-016
rhumerus -24.9301 -14.989 -82.1505
rradius 23.2365
rwrist 34.7481
rhand -21.9213 -28.7074
rfingers 7.12502
rthumb 4.48475 -58.64
lclavicle -1.88845e-015 7.95139e-016
lhumerus -20.4363 2.68314 88.7491
lradius 14.2538
lwrist -1.16826
lhand -25.2863 -7.03442
lfingers 7.12502
lthumb 1.2351 22.9418
rfemur -14.035 -1.86458 19.5244
rtibia 20.2564
rfoot -11.7144 -0.072896
rtoes 17.8373
lfemur -10.1646 5.9811 -18.1227
ltibia 15.553
lfoot -8.95286 6.32914
ltoes 1.99139
599
root 0.379443 17.783 2.94324 7.14141 -1.44547 -1.29024
lowerback -2.50173 0.0154124 -0.249836
upperback 2.4517 -0.0192063 1.40509
thorax 3.92782 -0.0383262 1.58713
lowerneck -13.4425 0.204404 -1.8985
upperneck 25.9451 0.608692 0.558849
head 10.5215 0.157613 0.601356
rclavicle 2.78299e-015 3.77691e-015
rhumerus -24.9357 -15.0029 -82.1273
rradius 23.2135
rwrist 34.7791
rhand -21.915 -28.7068
rfingers 7.12502
rthumb 4.49084 -58.6392
lclavicle 2.78299e-015 3.77691e-015
lhumerus -20.4242 2.5732 88.7899
lradius 14.2846
lwrist -1.07348
lhand -25.2753 -6.99847
lfingers 7.12502
lthumb 1.24572 22.9776
rfemur -14.0333 -1.87068 19.5228
rtibia 20.257
rfoot -11.712 -0.0771627
rtoes 17.8357
lfemur -10.1651 5.9759 -18.1238
ltibia 15.5536
lfoot -8.95032 6.32279
ltoes 1.98768
600
root 0.379331 17.7831 2.94178 7.13522 -1.43904 -1.28619
lowerback -2.51185 0.0159441 -0.249375
upperback 2.44301 -0.018514 1.40628
thorax 3.92453 -0.0379317 1.58814
lowerneck -13.4242 0.198619 -1.9035
upperneck 25.8898 0.599305 0.565571
head 10.4977 0.154063 0.603036
rclavicle 1.88845e-015 1.64991e-014
rhumerus -24.9423 -15.0166 -82.106
rradius 23.1908
rwrist 34.8059
rhand -21.9008 -28.7064
rfingers 7.12502
rthumb 4.50453 -58.6385
lclavicle 1.88845e-015 1.64991e-014
lhumerus -20.4135 2.47725 88.8251
lradius 14.3128
lwrist -0.997267
lhand -25.2521 -6.92571
lfingers 7.12502
lthumb 1.26812 23.0503
rfemur -14.0317 -1.87424 19.5189
rtibia 20.2564
rfoot -11.7096 -0.081433
rtoes 17.8299
lfemur -10.166 5.97158 -18.1272
ltibia 15.555
lfoot -8.94794 6.31851
ltoes 1.99201
601
root 0.379226 17.7831 2.94054 7.12904 -1.43437 -1.28283
lowerback -2.52446 0.0172326 -0.247873
upperback 2.43562 -0.0168694 1.40708
thorax 3.92396 -0.0370465 1.58821
lowerneck -13.4012 0.19018 -1.91006
upperneck 25.8265 0.586078 0.573524
head 10.47 0.148803 0.604869
rclavicle 1.2424e-015 7.35503e-015
rhumerus -24.9468 -15.0371 -82.0842
rradius 23.1669
rwrist 34.8317
rhand -21.886 -28.6951
rfingers 7.12502
rthumb 4.51888 -58.6269
lclavicle 1.2424e-015 7.35503e-015
lhumerus -20.4024 2.40013 88.8561
lradius 14.3389
lwrist -0.940317
lhand -25.2329 -6.84529
lfingers 7.12502
lthumb 1.28663 23.1306
rfemur -14.029 -1.8788 19.5157
rtibia 20.2548
rfoot -11.7064 -0.0834108
rtoes 17.8188
lfemur -10.1658 5.96894 -18.1301
ltibia 15.5561
lfoot -8.94582 6.31505
ltoes 1.99122
602
root 0.379093 17.7831 2.93933 7.12288 -1.43159 -1.28236
lowerback -2.53628 0.0189782 -0.243237
upperback 2.42843 -0.0147525 1.40794
thorax 3.92313 -0.0358386 1.58663
lowerneck -13.3798 0.182009 -1.91342
upperneck 25.7599 0.572746 0.580412
head 10.4416 0.143695 0.605755
rclavicle -9.93923e-016 -1.19271e-015
rhumerus -24.9502 -15.0566 -82.0638
rradius 23.1427
rwrist 34.8505
rhand -21.8674 -28.6831
rfingers 7.12502
rthumb 4.53683 -58.6145
lclavicle -9.93923e-016 -1.19271e-015
lhumerus -20.3929 2.346 88.8804
lradius 14.3655
lwrist -0.903299
lhand -25.2108 -6.76482
lfingers 7.12502
lthumb 1.30793 23.2109
rfemur -14.0263 -1.87891 19.5157
rtibia 20.2532
rfoot -11.7022 -0.0875538
rtoes 17.8059
lfemur -10.1646 5.96536 -18.1297
ltibia 15.556
lfoot -8.94266 6.31505
ltoes 2.00227
603
root 0.379015 17.7831 2.93831 7.1166 -1.42945 -1.28176
lowerback -2.549 0.0210178 -0.23767
upperback 2.42145 -0.0122692 1.40818
thorax 3.92303 -0.0344171 1.5839
lowerneck -13.3574 0.172773 -1.91808
upperneck 25.6894 0.557665 0.589311
head 10.4115 0.137917 0.607335
rclavicle -5.96354e-016 -1.09332e-014
rhumerus -24.9567 -15.0735 -82.045
rradius 23.1266
rwrist 34.8586
rhand -21.8484 -28.6732
rfingers 7.12502
rthumb 4.55511 -58.6042
lclavicle -5.96354e-016 -1.09332e-014
lhumerus -20.3878 2.30057 88.9028
lradius 14.3939
lwrist -0.868726
lhand -25.2002 -6.69673
lfingers 7.12502
lthumb 1.31822 23.2789
rfemur -14.0228 -1.88228 19.5153
rtibia 20.2523
rfoot -11.6993 -0.0879445
rtoes 17.7943
lfemur -10.1611 5.96247 -18.1296
ltibia 15.5542
lfoot -8.9402 6.31527
ltoes 2.02199
604
root 0.37896 17.7831 2.93726 7.11014 -1.42697 -1.27937
lowerback -2.55957 0.0223786 -0.233525
upperback 2.41382 -0.0105946 1.40792
thorax 3.92105 -0.0334191 1.5814
lowerneck -13.3362 0.16381 -1.9236
upperneck 25.6183 0.542986 0.599082
head 10.3815 0.132336 0.609425
rclavicle -3.23025e-015 1.0138e-014
rhumerus -24.9666 -15.0822 -82.0286
rradius 23.1196
rwrist 34.8551
rhand -21.827 -28.6666
rfingers 7.12502
rthumb 4.57582 -58.5972
lclavicle -3.23025e-015 1.0138e-014
lhumerus -20.3842 2.27899 88.9194
lradius 14.4211
lwrist -0.851215
lhand -25.1999 -6.671
lfingers 7.12502
lthumb 1.31851 23.3047
rfemur -14.0194 -1.88493 19.5128
rtibia 20.2532
rfoot -11.6979 -0.0886656
rtoes 17.7894
lfemur -10.1557 5.95749 -18.1315
ltibia 15.5496
lfoot -8.93639 6.31641
ltoes 2.04828
605
root 0.378907 17.7831 2.93615 7.10408 -1.42496 -1.27426
lowerback -2.56887 0.0230647 -0.232395
upperback 2.40572 -0.00965307 1.40698
thorax 3.91789 -0.0328533 1.57985
lowerneck -13.3197 0.15574 -1.92744
upperneck 25.5504 0.529994 0.606216
head 10.3536 0.127345 0.610544
rclavicle 1.49089e-015 -2.38542e-015
rhumerus -24.9799 -15.079 -82.0159
rradius 23.1224
rwrist 34.8359
rhand -21.8022 -28.6673
rfingers 7.12502
rthumb 4.59981 -58.5974
lclavicle 1.49089e-015 -2.38542e-015
lhumerus -20.3847 2.25934 88.936
lradius 14.4497
lwrist -0.824239
lhand -25.2155 -6.67702
lfingers 7.12502
lthumb 1.3034 23.2987
rfemur -14.0176 -1.88657 19.5071
rtibia 20.2563
rfoot -11.6976 -0.0900013
rtoes 17.7907
lfemur -10.149 5.95095 -18.1362
ltibia 15.5415
lfoot -8.93043 6.31772
ltoes 2.07727
606
root 0.378875 17.7831 2.93505 7.09732 -1.4232 -1.26667
lowerback -2.57605 0.0227023 -0.233201
upperback 2.39661 -0.00997201 1.40513
thorax 3.91252 -0.0329406 1.57835
lowerneck -13.305 0.148802 -1.93199
upperneck 25.4866 0.519118 0.612329
head 10.3275 0.123097 0.611719
rclavicle 3.72721e-015 -4.96962e-015
rhumerus -24.9979 -15.0629 -82.0073
rradius 23.1346
rwrist 34.805
rhand -21.7768 -28.6747
rfingers 7.12502
rthumb 4.62432 -58.6043
lclavicle 3.72721e-015 -4.96962e-015
lhumerus -20.3888 2.24349 88.9512
lradius 14.4755
lwrist -0.792194
lhand -25.2415 -6.71526
lfingers 7.12502
lthumb 1.27836 23.2607
rfemur -14.0157 -1.88943 19.4987
rtibia 20.2614
rfoot -11.6989 -0.0899533
rtoes 17.7947
lfemur -10.1398 5.94184 -18.1433
ltibia 15.5309
lfoot -8.92374 6.31914
ltoes 2.10635
607
root 0.378753 17.7831 2.93398 7.09007 -1.42271 -1.25929
lowerback -2.58135 0.0220283 -0.235226
upperback 2.38664 -0.0106529 1.40379
thorax 3.90521 -0.0332373 1.57804
lowerneck -13.2965 0.141318 -1.93574
upperneck 25.4302 0.508674 0.613855
head 10.3054 0.118525 0.61125
rclavicle 3.23025e-015 -8.54774e-015
rhumerus -25.0205 -15.033 -82.0016
rradius 23.1547
rwrist 34.7628
rhand -21.7488 -28.6865
rfingers 7.12502
rthumb 4.6513 -58.6154
lclavicle 3.23025e-015 -8.54774e-015
lhumerus -20.3969 2.23269 88.9655
lradius 14.499
lwrist -0.760257
lhand -25.2767 -6.77873
lfingers 7.12502
lthumb 1.24433 23.1974
rfemur -14.0141 -1.88911 19.4906
rtibia 20.2677
rfoot -11.7007 -0.0917553
rtoes 17.8019
lfemur -10.1294 5.93462 -18.1496
ltibia 15.5188
lfoot -8.91627 6.31826
ltoes 2.1313
608
root 0.378565 17.7831 2.93296 7.0827 -1.42368 -1.25192
lowerback -2.58694 0.0208223 -0.23764
upperback 2.37664 -0.0120193 1.4022
thorax 3.89805 -0.0338826 1.57763
lowerneck -13.2922 0.135622 -1.93881
upperneck 25.3779 0.501165 0.613641
head 10.2856 0.115128 0.610457
rclavicle 1.04362e-015 9.93923e-016
rhumerus -25.0444 -14.9961 -81.9989
rradius 23.1769
rwrist 34.7171
rhand -21.7201 -28.7012
rfingers 7.12502
rthumb 4.67903 -58.6295
lclavicle 1.04362e-015 9.93923e-016
lhumerus -20.4066 2.22618 88.9776
lradius 14.5188
lwrist -0.734164
lhand -25.311 -6.84991
lfingers 7.12502
lthumb 1.21116 23.1264
rfemur -14.0124 -1.88782 19.483
rtibia 20.2736
rfoot -11.7012 -0.0943244
rtoes 17.7996
lfemur -10.1194 5.9296 -18.1558
ltibia 15.5072
lfoot -8.90775 6.31609
ltoes 2.14815
